<svg id="圖層_1" data-name="圖層 1" xmlns="http://www.w3.org/2000/svg" viewBox="0 0 177.37 171.53"><defs><style>.cls-1{fill:#f4eded;}</style></defs><path class="cls-1" d="M114.87,82.67V93.44l-1.33.51c-7.82-11.71-15.65-23.41-23.81-35.62L65,91c-2.86-5.51-5.35-10.34-8.35-16.13-7.9,10.48-15.4,20.44-23.55,31.24,2.5.12,4.19.28,5.89.28,15.28,0,30.56.13,45.84-.07,4.14,0,5.53,1.35,5.41,5.44-.24,8.13-.16,16.28,0,24.42,0,3.19-1.17,4.31-4.41,4.3-20.59-.12-41.19.07-61.78-.12-10.6-.1-17.19-7.53-17.23-19-.08-23.09,0-46.18,0-69.27,0-8.47,0-16.94,0-25.41.09-12.29,7-19.18,19.14-19.18q51.57,0,103.14,0c11.79,0,18.63,6.77,18.65,18.4,0,17.27-.11,34.55.09,51.82,0,4-1.19,5.15-5.09,5C133.63,82.5,124.54,82.67,114.87,82.67Z"/><rect class="cls-1" x="130.19" y="98.16" width="17.49" height="67.21" rx="3.52"/><rect class="cls-1" x="130.19" y="98.16" width="17.49" height="67.21" rx="3.52" transform="translate(270.71 -7.18) rotate(90)"/></svg>