<svg id="圖層_1" data-name="圖層 1" xmlns="http://www.w3.org/2000/svg" xmlns:xlink="http://www.w3.org/1999/xlink" viewBox="0 0 27 27"><defs><style>.cls-1{fill:url(#未命名漸層_3);}.cls-2{fill:url(#未命名漸層_13);}</style><linearGradient id="未命名漸層_3" x1="18.21" y1="6.83" x2="9.23" y2="17.11" gradientUnits="userSpaceOnUse"><stop offset="0" stop-color="#fbc776"/><stop offset="0.18" stop-color="#fabd70"/><stop offset="0.47" stop-color="#f9a35f"/><stop offset="0.85" stop-color="#f67944"/><stop offset="1" stop-color="#f56638"/></linearGradient><linearGradient id="未命名漸層_13" x1="22.05" y1="3.71" x2="4.95" y2="23.29" gradientUnits="userSpaceOnUse"><stop offset="0" stop-color="#fbc776"/><stop offset="1" stop-color="#f56638"/></linearGradient></defs><path class="cls-1" d="M6.5,12.26v-.19A4.44,4.44,0,0,1,9.76,7.56a3.57,3.57,0,0,1,3.41,1.28l.33.38.3-.38a3.62,3.62,0,0,1,3.44-1.28,4.44,4.44,0,0,1,3.26,4.51v.19a5.24,5.24,0,0,1-1.3,3.5l-4.94,5.39a1,1,0,0,1-1.41.11.57.57,0,0,1-.11-.11L7.8,15.76A5.24,5.24,0,0,1,6.5,12.26Z"/><path class="cls-2" d="M13.5,26.5a13,13,0,1,1,13-13A13,13,0,0,1,13.5,26.5Zm0-25a12,12,0,1,0,12,12A12,12,0,0,0,13.5,1.5Z"/></svg>