<svg id="圖層_1" data-name="圖層 1" xmlns="http://www.w3.org/2000/svg" xmlns:xlink="http://www.w3.org/1999/xlink" viewBox="0 0 27 27"><defs><style>.cls-1{fill:url(#未命名漸層_13);}.cls-2{fill:url(#未命名漸層_13-2);}</style><linearGradient id="未命名漸層_13" x1="22.05" y1="3.71" x2="4.95" y2="23.29" gradientUnits="userSpaceOnUse"><stop offset="0" stop-color="#fbc776"/><stop offset="1" stop-color="#f56638"/></linearGradient><linearGradient id="未命名漸層_13-2" x1="19.25" y1="8.38" x2="7.9" y2="21.37" xlink:href="#未命名漸層_13"/></defs><path class="cls-1" d="M13.5,26.5a13,13,0,1,1,13-13A13,13,0,0,1,13.5,26.5Zm0-25a12,12,0,1,0,12,12A12,12,0,0,0,13.5,1.5Z"/><path class="cls-2" d="M11,12.77A3.35,3.35,0,1,0,7.64,9.42,3.35,3.35,0,0,0,11,12.77ZM12.31,14H9.66a4.53,4.53,0,0,0-4.54,4.52h0a.91.91,0,0,0,.91.91h9.91a.91.91,0,0,0,.91-.91h0A4.53,4.53,0,0,0,12.32,14Zm5.35.41H15.73a5.33,5.33,0,0,1,2,4.12,1.72,1.72,0,0,1-.26.91H21a.85.85,0,0,0,.84-.86h0a4.2,4.2,0,0,0-4.18-4.14Zm-1.23-1.67a2.93,2.93,0,0,0,0-5.86,2.88,2.88,0,0,0-1.74.59,4,4,0,0,1,.49,1.92,4.27,4.27,0,0,1-.83,2.48,2.91,2.91,0,0,0,2.08.9Z"/></svg>