<svg id="圖層_1" data-name="圖層 1" xmlns="http://www.w3.org/2000/svg" xmlns:xlink="http://www.w3.org/1999/xlink" viewBox="0 0 42 42"><defs><style>.cls-1{fill:url(#未命名漸層_2);}.cls-2{fill:url(#未命名漸層_13);}</style><linearGradient id="未命名漸層_2" x1="34.48" y1="5.57" x2="7.52" y2="36.43" gradientUnits="userSpaceOnUse"><stop offset="0" stop-color="#fbc776"/><stop offset="0.17" stop-color="#fbbf71"/><stop offset="0.43" stop-color="#f9a963"/><stop offset="0.75" stop-color="#f7864d"/><stop offset="1" stop-color="#f56638"/></linearGradient><linearGradient id="未命名漸層_13" x1="27.31" y1="11.67" x2="14.46" y2="26.38" gradientUnits="userSpaceOnUse"><stop offset="0" stop-color="#fbc776"/><stop offset="1" stop-color="#f56638"/></linearGradient></defs><path class="cls-1" d="M21,41.5A20.5,20.5,0,1,1,41.5,21,20.53,20.53,0,0,1,21,41.5Zm0-40A19.5,19.5,0,1,0,40.5,21,19.53,19.53,0,0,0,21,1.5Z"/><path class="cls-2" d="M9.87,19v-.25a6.22,6.22,0,0,1,10.61-4.42l.52.52.48-.52a6.29,6.29,0,0,1,5.46-1.74,6.22,6.22,0,0,1,5.19,6.13V19a6.49,6.49,0,0,1-2.07,4.75L22.21,31a1.79,1.79,0,0,1-2.42,0L11.94,23.7A6.5,6.5,0,0,1,9.87,19Z"/></svg>