<svg id="圖層_1" data-name="圖層 1" xmlns="http://www.w3.org/2000/svg" viewBox="0 0 42 42"><defs><style>.cls-1{fill:none;stroke:#f4eded;stroke-miterlimit:10;}.cls-2{fill:#f4eded;}</style></defs><circle class="cls-1" cx="21" cy="21" r="20"/><path class="cls-2" d="M22.42,11.31v.85a7.14,7.14,0,0,1,5.7,7V20a8.47,8.47,0,0,0,2.15,5.67l.33.37a1.42,1.42,0,0,1-.13,2,1.41,1.41,0,0,1-.93.36H12.47A1.43,1.43,0,0,1,11.4,26l.33-.37A8.53,8.53,0,0,0,13.89,20v-.84a7.09,7.09,0,0,1,5.69-7v-.85a1.42,1.42,0,0,1,2.84,0ZM21,32.09a2.81,2.81,0,0,1-2-.83,2.87,2.87,0,0,1-.83-2h5.69A2.84,2.84,0,0,1,21,32.11h0Z"/></svg>