<svg id="圖層_1" data-name="圖層 1" xmlns="http://www.w3.org/2000/svg" xmlns:xlink="http://www.w3.org/1999/xlink" viewBox="0 0 42 42"><defs><style>.cls-1{fill:url(#未命名漸層_13);}.cls-2{fill:url(#未命名漸層_13-2);}</style><linearGradient id="未命名漸層_13" x1="34.48" y1="5.57" x2="7.52" y2="36.43" gradientUnits="userSpaceOnUse"><stop offset="0" stop-color="#fbc776"/><stop offset="1" stop-color="#f56638"/></linearGradient><linearGradient id="未命名漸層_13-2" x1="28.02" y1="15.56" x2="14.71" y2="30.8" xlink:href="#未命名漸層_13"/></defs><path class="cls-1" d="M21,41.5A20.5,20.5,0,1,1,41.5,21,20.53,20.53,0,0,1,21,41.5Zm0-40A19.5,19.5,0,1,0,40.5,21,19.53,19.53,0,0,0,21,1.5Z"/><path class="cls-2" d="M22.42,11.31v.85a7.14,7.14,0,0,1,5.7,7V20a8.47,8.47,0,0,0,2.15,5.67l.33.37a1.42,1.42,0,0,1-.13,2,1.41,1.41,0,0,1-.93.36H12.47A1.43,1.43,0,0,1,11.4,26l.33-.37A8.53,8.53,0,0,0,13.89,20v-.84a7.09,7.09,0,0,1,5.69-7v-.85a1.42,1.42,0,0,1,2.84,0ZM21,32.09a2.81,2.81,0,0,1-2-.83,2.87,2.87,0,0,1-.83-2h5.69A2.84,2.84,0,0,1,21,32.11h0Z"/></svg>