<svg id="圖層_1" data-name="圖層 1" xmlns="http://www.w3.org/2000/svg" xmlns:xlink="http://www.w3.org/1999/xlink" viewBox="0 0 42 42"><defs><style>.cls-1{fill:url(#未命名漸層_13);}.cls-2{fill:url(#未命名漸層_13-2);}.cls-3{fill:url(#未命名漸層_13-3);}.cls-4{fill:url(#未命名漸層_13-4);}</style><linearGradient id="未命名漸層_13" x1="29.91" y1="2.01" x2="-5.42" y2="42.44" gradientUnits="userSpaceOnUse"><stop offset="0" stop-color="#fbc776"/><stop offset="1" stop-color="#f56638"/></linearGradient><linearGradient id="未命名漸層_13-2" x1="34.28" y1="5.84" x2="-1.04" y2="46.27" xlink:href="#未命名漸層_13"/><linearGradient id="未命名漸層_13-3" x1="38.65" y1="9.65" x2="3.32" y2="50.08" xlink:href="#未命名漸層_13"/><linearGradient id="未命名漸層_13-4" x1="34.26" y1="5.82" x2="-1.06" y2="46.25" xlink:href="#未命名漸層_13"/></defs><path class="cls-1" d="M14.13,11.34h4c.11,0,.18,0,.22-.15a2.95,2.95,0,0,1,5.5-.3.61.61,0,0,1,.05.12c.13.33.13.33.49.33h7.91a.73.73,0,0,1-.08,1.44h-8c-.17,0-.25,0-.3.21a2.94,2.94,0,0,1-3.73,1.85,3.29,3.29,0,0,1-.68-.33,2.78,2.78,0,0,1-1.18-1.57c0-.15-.12-.14-.23-.14h-8a.7.7,0,0,1-.68-.71h0A.72.72,0,0,1,10,11.3h4.11Zm7-.72a1.46,1.46,0,0,0-1.5,1.43v0a1.47,1.47,0,1,0,1.48-1.46h0Z"/><path class="cls-2" d="M26,20.16h6.1a1.08,1.08,0,0,1,.55.15.71.71,0,0,1,.25.79.66.66,0,0,1-.56.51,1.71,1.71,0,0,1-.32,0H19.83c-.19,0-.25.06-.31.24a2.82,2.82,0,0,1-2.35,1.93A2.92,2.92,0,0,1,14,22v0s0-.3-.15-.36a1,1,0,0,0-.43,0H10.16A.7.7,0,0,1,9.38,21v-.1a.71.71,0,0,1,.63-.78.38.38,0,0,1,.15,0h3.57a.19.19,0,0,0,.21-.15,2.94,2.94,0,0,1,5.6,0c0,.14.12.15.24.15Zm-9.23,2.21A1.49,1.49,0,0,0,18.32,21,1.47,1.47,0,0,0,17,19.43h-.22A1.47,1.47,0,0,0,15.38,21,1.5,1.5,0,0,0,16.74,22.37Z"/><path class="cls-3" d="M16.34,29h6.19c.11,0,.18,0,.22-.15a2.94,2.94,0,0,1,4.59-1.46,2.7,2.7,0,0,1,1,1.45.19.19,0,0,0,.21.16h3.55a.74.74,0,1,1,0,1.47H28.52a.19.19,0,0,0-.21.15,2.92,2.92,0,0,1-3.67,1.92,2.88,2.88,0,0,1-1.92-1.92c0-.14-.13-.14-.24-.14H10a.7.7,0,0,1-.61-.77h0a.69.69,0,0,1,.68-.69h6.26Zm9.22,2.19a1.47,1.47,0,1,0-1.47-1.46,1.46,1.46,0,0,0,1.47,1.46Z"/><path class="cls-4" d="M21,41.5A20.5,20.5,0,1,1,41.5,21,20.53,20.53,0,0,1,21,41.5Zm0-40A19.5,19.5,0,1,0,40.5,21,19.53,19.53,0,0,0,21,1.5Z"/></svg>