<svg id="圖層_1" data-name="圖層 1" xmlns="http://www.w3.org/2000/svg" viewBox="0 0 34.39 26.28"><defs><style>.cls-1{fill:#f4eded;}</style></defs><path class="cls-1" d="M17.28.28H31a2.94,2.94,0,0,1,2.55,1.3,3.33,3.33,0,0,1,.58,2q0,9.54,0,19.08a3.11,3.11,0,0,1-2.22,3.16,2.69,2.69,0,0,1-.85.12H3.53a3,3,0,0,1-3-2.41,3.51,3.51,0,0,1-.11-.92v-19A3.09,3.09,0,0,1,3.63.28ZM3.86,2.43,4,2.64c3.69,4,7.37,8,11.08,11.92a3.16,3.16,0,0,0,1.13.8,2.7,2.7,0,0,0,3.21-.8L30.5,2.65c.06-.06.1-.13.18-.22ZM30.51,23.75l-8.36-9.23a2.31,2.31,0,0,1-.21.37c-.49.53-1,1.1-1.49,1.57a4.52,4.52,0,0,1-5.23.78,6.23,6.23,0,0,1-2-1.65l-.91-1L4,23.75ZM2.49,4,2.44,4V22.26l8.32-9.19ZM32.11,22.25V3.93l-8.32,9.14Z"/></svg>