<svg id="圖層_1" data-name="圖層 1" xmlns="http://www.w3.org/2000/svg" viewBox="0 0 30.28 31.12"><defs><style>.cls-1{fill:#f4eded;}</style></defs><path class="cls-1" d="M6.33,3.26h5.09c.15,0,.24,0,.29-.19A3.7,3.7,0,0,1,14.93.47a3.76,3.76,0,0,1,3.8,2.22.94.94,0,0,1,.06.15c.16.42.16.42.62.42h9.74a2.17,2.17,0,0,1,.36,0,.89.89,0,0,1,.76,1,.88.88,0,0,1-.86.84,2.62,2.62,0,0,1-.28,0c-3.31,0-6.61,0-9.91,0-.21,0-.31,0-.38.26a3.76,3.76,0,0,1-5.63,1.94,3.51,3.51,0,0,1-1.5-2c-.05-.19-.16-.18-.3-.18H1.17A.89.89,0,0,1,.3,4.21a.9.9,0,0,1,.85-1H6.33Zm9-.92A1.87,1.87,0,0,0,13.42,4.2a1.87,1.87,0,1,0,1.87-1.86Z"/><path class="cls-1" d="M21.45,14.51h7.78a1.35,1.35,0,0,1,.7.2.89.89,0,0,1,.32,1,.85.85,0,0,1-.72.66,2.68,2.68,0,0,1-.4,0H13.61c-.24,0-.32.07-.4.3a3.59,3.59,0,0,1-3,2.47,3.73,3.73,0,0,1-4-2.22s0,0,0-.05-.07-.39-.19-.46a1.24,1.24,0,0,0-.55,0H1.27a.9.9,0,0,1-1-.92.91.91,0,0,1,1-1H5.82a.24.24,0,0,0,.27-.19,3.68,3.68,0,0,1,3.57-2.62,3.69,3.69,0,0,1,3.58,2.61c0,.18.15.19.31.19ZM9.67,17.33a1.88,1.88,0,1,0,0-3.75,1.88,1.88,0,0,0,0,3.75Z"/><path class="cls-1" d="M9.15,25.77h7.9c.15,0,.23,0,.28-.19a3.75,3.75,0,0,1,5.86-1.86,3.42,3.42,0,0,1,1.29,1.85.24.24,0,0,0,.28.2h4.52a.94.94,0,1,1,0,1.88c-.94,0-1.89,0-2.83,0-.59,0-1.17,0-1.75,0a.24.24,0,0,0-.27.19,3.74,3.74,0,0,1-7.14,0c-.06-.18-.16-.18-.3-.18H1.43a2,2,0,0,1-.35,0,.89.89,0,0,1-.78-1,.87.87,0,0,1,.88-.87h8Zm11.77,2.8a1.87,1.87,0,0,0,1.86-1.87,1.87,1.87,0,1,0-1.86,1.87Z"/></svg>