<svg id="圖層_1" data-name="圖層 1" xmlns="http://www.w3.org/2000/svg" viewBox="0 0 19.44 18.21"><defs><style>.cls-1{fill:#f4eded;}</style></defs><path class="cls-1" d="M7.08,9.58A3.36,3.36,0,1,0,3.73,6.22,3.35,3.35,0,0,0,7.08,9.58Zm1.33,1.25H5.75a4.53,4.53,0,0,0-4.53,4.54.91.91,0,0,0,.91.91H12a.9.9,0,0,0,.9-.91A4.53,4.53,0,0,0,8.41,10.83Zm5.35.42H11.83a5.31,5.31,0,0,1,1.95,4.12,1.78,1.78,0,0,1-.26.91h3.61a.85.85,0,0,0,.84-.87A4.18,4.18,0,0,0,13.76,11.25ZM12.53,9.58A2.94,2.94,0,1,0,10.78,4.3a4.18,4.18,0,0,1,.49,1.92,4.11,4.11,0,0,1-.83,2.48A2.92,2.92,0,0,0,12.53,9.58Z"/></svg>